<svg xmlns="http://www.w3.org/2000/svg" xmlns:xlink="http://www.w3.org/1999/xlink" zoomAndPan="magnify" viewBox="0 0 375 374.999991" preserveAspectRatio="xMidYMid meet" version="1.0"><path fill="#ac4c79" d="M 188.53125 0 C 136.878906 0 130.683594 0 111.054688 1.03125 C 91.425781 1.03125 76.960938 5.164062 65.597656 9.296875 C 53.203125 14.460938 42.871094 20.660156 32.542969 30.992188 C 22.210938 41.324219 16.011719 51.652344 10.847656 64.050781 C 5.683594 76.445312 2.582031 89.875 2.582031 109.503906 C 0.515625 131.199219 0.515625 137.398438 0.515625 188.015625 C 0.515625 239.667969 0.515625 245.867188 1.550781 265.496094 C 1.550781 285.125 5.683594 299.585938 9.8125 310.949219 C 14.980469 323.347656 21.175781 333.675781 31.507812 344.007812 C 41.839844 354.339844 52.167969 360.539062 64.566406 365.703125 C 76.960938 370.867188 90.390625 373.96875 110.019531 373.96875 C 129.648438 373.96875 136.878906 375 187.5 375 C 238.121094 375 245.351562 375 264.980469 373.96875 C 284.609375 373.96875 299.070312 369.835938 310.433594 365.703125 C 322.832031 360.539062 333.160156 354.339844 343.492188 344.007812 C 353.824219 333.675781 360.019531 323.347656 365.1875 310.949219 C 369.316406 298.554688 373.449219 285.125 373.449219 265.496094 C 373.449219 245.867188 374.484375 238.636719 374.484375 188.015625 C 374.484375 136.363281 374.484375 130.164062 373.449219 110.539062 C 373.449219 90.910156 369.316406 76.445312 365.1875 65.082031 C 360.019531 52.6875 353.824219 42.355469 343.492188 32.023438 C 333.160156 21.695312 322.832031 15.496094 310.433594 10.332031 C 298.039062 5.164062 284.609375 2.066406 264.980469 2.066406 C 246.382812 0 240.1875 0 188.53125 0 Z M 172.003906 34.089844 C 177.167969 34.089844 182.335938 34.089844 188.53125 34.089844 C 239.152344 34.089844 244.316406 34.089844 264.980469 35.125 C 283.574219 35.125 292.871094 39.257812 300.101562 41.324219 C 309.402344 44.421875 315.597656 48.554688 321.796875 55.785156 C 327.996094 61.984375 332.128906 68.183594 336.261719 77.480469 C 338.328125 83.675781 341.425781 94.007812 342.457031 112.601562 C 342.457031 132.230469 343.492188 138.429688 343.492188 189.050781 C 343.492188 239.667969 343.492188 244.835938 342.457031 265.496094 C 342.457031 284.089844 338.328125 293.386719 336.261719 300.621094 C 333.160156 309.917969 329.027344 316.117188 321.796875 322.3125 C 315.597656 328.511719 309.402344 332.644531 300.101562 336.777344 C 293.90625 339.875 283.574219 341.941406 264.980469 342.976562 C 245.351562 342.976562 239.152344 344.007812 188.53125 344.007812 C 137.914062 344.007812 132.746094 344.007812 112.085938 342.976562 C 93.492188 342.976562 84.195312 338.84375 76.960938 336.777344 C 67.664062 333.675781 61.46875 329.546875 55.269531 322.3125 C 49.070312 316.117188 44.9375 309.917969 40.804688 300.621094 C 38.738281 294.421875 35.640625 284.089844 34.609375 265.496094 C 34.609375 245.867188 33.574219 239.667969 33.574219 189.050781 C 33.574219 138.429688 33.574219 133.265625 34.609375 112.601562 C 34.609375 94.007812 38.738281 84.710938 40.804688 77.480469 C 43.90625 68.183594 48.039062 61.984375 55.269531 55.785156 C 61.46875 49.585938 67.664062 45.453125 76.960938 41.324219 C 83.160156 38.222656 93.492188 36.15625 112.085938 35.125 C 129.648438 35.125 135.847656 35.125 170.972656 34.089844 Z M 188.53125 91.941406 C 134.8125 91.941406 91.425781 135.332031 91.425781 189.050781 C 91.425781 242.769531 134.8125 286.15625 188.53125 286.15625 C 242.253906 286.15625 285.640625 242.769531 285.640625 189.050781 C 285.640625 135.332031 242.253906 91.941406 188.53125 91.941406 Z M 188.53125 126.03125 C 223.65625 126.03125 251.550781 153.925781 251.550781 189.050781 C 251.550781 224.171875 223.65625 252.066406 188.53125 252.066406 C 153.410156 252.066406 125.515625 224.171875 125.515625 189.050781 C 125.515625 153.925781 153.410156 126.03125 188.53125 126.03125 Z M 188.53125 126.03125 " fill-opacity="1" fill-rule="nonzero"/></svg>