<svg xmlns="http://www.w3.org/2000/svg" xmlns:xlink="http://www.w3.org/1999/xlink" zoomAndPan="magnify" viewBox="0 0 375 374.999991" preserveAspectRatio="xMidYMid meet" version="1.0"><path fill="#ac4c79" d="M 187.5 0 C 83.945312 0 0 83.945312 0 187.5 C 0 291.054688 83.945312 375 187.5 375 C 291.054688 375 375 291.054688 375 187.5 C 375 83.945312 291.054688 0 187.5 0 Z M 187.5 0 " fill-opacity="1" fill-rule="nonzero"/><path fill="#ffc7df" d="M 119.316406 76.703125 C 109.90625 76.703125 102.273438 84.335938 102.273438 93.75 L 102.273438 281.25 C 102.273438 290.664062 109.90625 298.296875 119.316406 298.296875 L 170.453125 298.296875 C 179.867188 298.296875 187.5 290.664062 187.5 281.25 L 187.5 186.039062 L 201.621094 171.917969 C 208.015625 165.523438 216.683594 161.933594 225.726562 161.933594 L 255.683594 161.933594 C 265.097656 161.933594 272.726562 154.300781 272.726562 144.886719 L 272.726562 93.75 C 272.726562 84.335938 265.097656 76.703125 255.683594 76.703125 L 217.203125 76.703125 C 205.851562 76.703125 194.792969 79.535156 184.96875 84.804688 C 181.964844 79.945312 176.589844 76.703125 170.453125 76.703125 Z M 119.316406 76.703125 " fill-opacity="1" fill-rule="nonzero"/></svg>